<svg width="891" height="612" viewBox="0 0 891 612" fill="none" xmlns="http://www.w3.org/2000/svg">
<g clip-path="url(#clip0_10_131)">
<path d="M578.031 549.793L577.751 548.681C577.689 548.437 571.385 524.104 552.355 510.891C533.324 497.678 508.322 500.275 508.072 500.303L506.933 500.429L507.212 501.541C507.274 501.785 513.578 526.117 532.609 539.331C551.64 552.544 576.641 549.947 576.891 549.919L578.031 549.793ZM551.214 512.534C567.304 523.705 574.006 543.128 575.484 548.024C570.379 548.348 549.824 548.848 533.749 537.687C517.677 526.528 510.961 507.096 509.479 502.197C514.587 501.874 535.14 501.374 551.214 512.534Z" fill="#F1F1F1"/>
<path d="M544.304 518.439C553.902 539.408 576.514 549.618 576.514 549.618C576.514 549.618 583.565 525.831 573.967 504.862C564.369 483.893 541.757 473.683 541.757 473.683C541.757 473.683 534.706 497.47 544.304 518.439Z" fill="#F1F1F1"/>
<path d="M787.947 542.211C798.297 510.381 799.144 474.208 781.653 444.678C774.217 432.124 763.767 421.284 750.949 414.198C736.164 406.024 719.097 403.351 702.4 402.982C666.094 402.181 630.035 410.951 593.725 406.417C577.434 404.383 561.185 399.82 547.22 390.971C535.146 383.319 524.667 372.612 518.482 359.627C512.456 347.235 511.093 333.088 514.641 319.773C518.072 307.18 526.149 295.406 537.96 289.377C548.69 283.899 561.863 283.754 572.951 288.284C584.88 293.158 593.468 303.24 595.296 316.144C597.575 332.241 590.327 348.167 582.259 361.64C574.492 374.609 565.078 386.781 553.638 396.723C542.557 406.353 529.49 413.944 515.118 417.317C501.483 420.517 486.777 420.234 473.523 415.508C459.849 410.617 448.451 400.868 441.5 388.116C433.741 374.083 431.032 357.869 431.298 341.984C431.613 323.223 435.573 304.65 439.107 286.292C442.691 267.674 446.544 249.109 450.663 230.598C452.671 221.575 454.742 212.567 456.877 203.573C457.322 201.696 460.216 202.491 459.77 204.371C451.281 240.168 443.346 276.251 437.325 312.554C434.467 329.787 432.676 347.661 436.26 364.928C439.282 379.489 446.065 393.605 457.665 403.239C479.801 421.623 512.818 419.295 536.51 405.422C549.287 397.941 560.126 387.462 569.1 375.753C578.377 363.649 587.017 349.806 590.933 334.947C592.955 327.274 593.531 319.085 591.196 311.412C589.393 305.51 585.857 300.286 581.047 296.42C572.038 289.111 559.301 286.486 548.043 288.949C535.358 291.724 525.544 301.27 520.278 312.882C514.81 325.15 514.172 339.03 518.491 351.749C523.033 365.173 532.452 376.647 543.776 384.991C556.666 394.49 572.029 399.877 587.716 402.532C622.912 408.489 658.267 400.699 693.528 399.984C709.597 399.658 726.068 400.895 741.255 406.511C754.784 411.551 766.734 420.093 775.881 431.263C795.947 455.606 801.502 487.909 796.752 518.531C795.44 526.835 793.463 535.021 790.84 543.009C790.246 544.837 787.348 544.054 787.947 542.211Z" fill="#E5E5E5"/>
<path d="M781 534.972H800V549.972H781V534.972Z" fill="#6C63FF"/>
<path d="M458.128 203.941H119.24C55.0424 203.941 3.00006 167.35 3.00006 103.152C3.00006 38.9548 55.0424 12.197 119.24 12.197H225.648C354.043 12.197 458.128 75.5454 458.128 203.941Z" fill="white"/>
<path d="M119.24 206.94H461.128V203.94C461.128 142.509 437.171 91.8813 391.848 57.5297C350.129 25.9106 292.658 9.1972 225.647 9.1972H119.24C84.8674 9.1972 55.8508 16.7856 35.3264 31.1425C11.8855 47.539 6.10352e-05 71.7665 6.10352e-05 103.152C6.10352e-05 134.619 12.1543 161.173 35.1487 179.944C56.4736 197.353 86.3377 206.94 119.24 206.94ZM455.109 200.94H119.24C51.5076 200.94 6.00006 161.643 6.00006 103.152C6.00006 23.7675 85.1921 15.1972 119.24 15.1972H225.647C335.786 15.1972 453.42 64.0615 455.109 200.94Z" fill="#E5E5E5"/>
<path d="M262.934 72.1181H302.961V81.7544H262.934V72.1181Z" fill="#6C63FF"/>
<path d="M124.32 72.1181H138.404V81.7544H124.32V72.1181Z" fill="#6C63FF"/>
<path d="M96.1526 72.1181H110.236V81.7544H96.1526V72.1181Z" fill="#6C63FF"/>
<path d="M153.229 72.1181H248.85V81.7544H153.229V72.1181Z" fill="#6C63FF"/>
<path d="M313.339 134.383H353.366V144.019H313.339V134.383Z" fill="#6C63FF"/>
<path d="M174.725 134.383H188.809V144.019H174.725V134.383Z" fill="#6C63FF"/>
<path d="M146.558 134.383H160.641V144.019H146.558V134.383Z" fill="#6C63FF"/>
<path d="M203.634 134.383H299.255V144.019H203.634V134.383Z" fill="#6C63FF"/>
<path d="M148.04 93.6144H188.068V103.251H148.04V93.6144Z" fill="#6C63FF"/>
<path d="M93.9288 93.6144H133.956V103.251H93.9288V93.6144Z" fill="#6C63FF"/>
<path d="M65.7614 93.6144H79.8451V103.251H65.7614V93.6144Z" fill="#6C63FF"/>
<path d="M311.115 93.6144H325.199V103.251H311.115V93.6144Z" fill="#6C63FF"/>
<path d="M201.41 93.6144H297.031V103.251H201.41V93.6144Z" fill="#6C63FF"/>
<path d="M231.06 114.369H271.088V124.006H231.06V114.369Z" fill="#6C63FF"/>
<path d="M285.171 114.369H325.199V124.006H285.171V114.369Z" fill="#6C63FF"/>
<path d="M65.7614 114.369H79.8451V124.006H65.7614V114.369Z" fill="#6C63FF"/>
<path d="M93.9288 114.369H108.013V124.006H93.9288V114.369Z" fill="#6C63FF"/>
<path d="M122.096 114.369H217.718V124.006H122.096V114.369Z" fill="#6C63FF"/>
<path d="M508.106 550.972H889.106C889.372 550.972 889.626 550.867 889.813 550.679C890.001 550.492 890.106 550.237 890.106 549.972C890.106 549.707 890.001 549.452 889.813 549.265C889.626 549.077 889.372 548.972 889.106 548.972H508.106C507.841 548.972 507.587 549.077 507.399 549.265C507.212 549.452 507.106 549.707 507.106 549.972C507.106 550.237 507.212 550.492 507.399 550.679C507.587 550.867 507.841 550.972 508.106 550.972Z" fill="#CBCBCB"/>
<path d="M659.106 611.972H776.106C776.372 611.972 776.626 611.867 776.813 611.679C777.001 611.492 777.106 611.237 777.106 610.972C777.106 610.707 777.001 610.452 776.813 610.265C776.626 610.077 776.372 609.972 776.106 609.972H659.106C658.841 609.972 658.587 610.077 658.399 610.265C658.212 610.452 658.106 610.707 658.106 610.972C658.106 611.237 658.212 611.492 658.399 611.679C658.587 611.867 658.841 611.972 659.106 611.972Z" fill="#CBCBCB"/>
<path d="M769.685 337.489C768.453 335.9 767.585 334.061 767.141 332.1C766.698 330.14 766.689 328.106 767.117 326.142C767.544 324.178 768.397 322.331 769.615 320.732C770.833 319.133 772.387 317.821 774.167 316.888L766.919 268.567L789.955 279.246L793.306 323.495C794.676 326.59 794.863 330.079 793.832 333.303C792.801 336.526 790.623 339.259 787.711 340.984C784.8 342.709 781.356 343.306 778.034 342.662C774.712 342.017 771.741 340.177 769.685 337.489Z" fill="#FFB7B7"/>
<path d="M700.036 594.085L716.616 594.084L724.503 530.133L700.033 530.134L700.036 594.085Z" fill="#FFB7B7"/>
<path d="M695.808 610.157L749.268 610.155V609.479C749.268 603.96 747.076 598.668 743.173 594.765C739.271 590.863 733.979 588.671 728.46 588.671H728.459L695.807 588.672L695.808 610.157Z" fill="#2F2E41"/>
<path d="M640.775 555.947L656.259 561.911L686.63 505.027L663.778 496.225L640.775 555.947Z" fill="#FFB7B7"/>
<path d="M631.045 569.435L680.971 588.664L681.214 588.033C683.199 582.879 683.055 577.148 680.815 572.1C678.574 567.052 674.421 563.101 669.267 561.116L669.266 561.115L638.773 549.37L631.045 569.435Z" fill="#2F2E41"/>
<path d="M748.222 299.94L752.907 326.966L677.948 554.969L637.931 542.753L666.525 458.657L695.419 333.962L696.045 289.516L748.222 299.94Z" fill="#2F2E41"/>
<path d="M731.735 581.952L718.236 489.638L720.413 472.216L696.045 418.738L698.853 291.986L645.716 299.94L666.525 463.201L693.625 559.086L699.069 579.774L731.735 581.952Z" fill="#2F2E41"/>
<path d="M723.569 80.5363C706.731 80.5363 693.081 66.8864 693.081 50.0485C693.081 33.2105 706.731 19.5607 723.569 19.5607C740.407 19.5607 754.057 33.2105 754.057 50.0485C754.057 66.8864 740.407 80.5363 723.569 80.5363Z" fill="#FFB8B8"/>
<path d="M693.477 17.6085C698.342 9.70899 705.956 3.88794 714.855 1.26568L721.391 6.49447L718.85 0.395672C720.987 0.0696774 723.15 -0.0553146 725.31 0.0223204L731.191 7.58331L728.757 0.281308C733.86 0.915445 738.776 2.60003 743.195 5.22882C747.615 7.85761 751.442 11.3736 754.434 15.555C761.919 26.3474 761.418 41.3494 754.057 52.2262C752.036 46.0159 751.347 40.1953 749.326 33.985C747.738 34.2015 746.128 34.2093 744.538 34.0083L742.079 28.2715L741.393 33.7656C733.772 33.1016 722.469 31.6441 715.244 30.3085L715.947 26.0938L711.744 29.5962C709.531 29.0867 708.216 28.6246 708.325 28.2715C702.952 36.9334 697.628 42.466 692.255 51.1279C690.216 38.91 686.615 28.754 693.477 17.6085Z" fill="#2F2E41"/>
<path d="M664.338 88.3964C664.338 88.3964 722.399 83.2351 747.811 104.326L755.69 293.407L751.345 308.162C751.345 308.162 730.562 312.309 705.344 305.155C680.126 298 645.716 308.162 645.716 308.162L642.017 192.382L664.338 88.3964Z" fill="#CBCBCB"/>
<path d="M749.813 296.911L731.694 112.968L735.113 97.1072C735.113 97.1072 770.07 106.98 782.807 125.726L759.818 285.126V299.94L749.813 296.911Z" fill="#3F3D56"/>
<path d="M668.582 284.696C668.582 284.696 717.193 119.799 699.749 89.6705C699.749 89.6705 664.659 79.7756 647.894 91.9802L638.608 193.258C638.608 193.258 619.977 251.165 634.263 264.783L631.128 278.401C631.128 278.401 650.187 279.524 654.268 280.051C658.349 280.578 668.582 284.696 668.582 284.696Z" fill="#3F3D56"/>
<path d="M771.97 124.635L782.807 125.726C782.807 125.726 786.703 127.842 786.224 137.246C785.745 146.65 797.469 284.457 791.607 293.406L795 305.078L771.045 311.611L769.622 299.94C769.622 299.94 759.919 269.773 758.677 262.11C757.435 254.446 771.97 124.635 771.97 124.635Z" fill="#3F3D56"/>
<path d="M653.03 282.403C653.075 280.393 652.678 278.399 651.869 276.559C651.059 274.719 649.855 273.079 648.343 271.755C646.831 270.43 645.047 269.454 643.117 268.893C641.186 268.333 639.157 268.203 637.17 268.512L614.247 225.362L602.086 247.65L625.719 285.209C626.459 288.512 628.385 291.428 631.131 293.405C633.878 295.382 637.254 296.283 640.621 295.937C643.987 295.591 647.11 294.023 649.397 291.528C651.684 289.034 652.977 285.787 653.03 282.403Z" fill="#FFB7B7"/>
<path d="M661.89 97.3301L648.983 91.9802C648.983 91.9802 627.964 103.404 626.28 114.683C624.595 125.962 583 198.977 583 198.977C583 198.977 597.872 263.979 611.233 267.923L618.495 275.936L638.557 263.009L632.057 256.509C632.057 256.509 632.228 222.123 626.234 215.963C626.234 215.963 643.105 172.782 650.727 168.427C658.349 164.071 661.89 97.3301 661.89 97.3301Z" fill="#3F3D56"/>
</g>
<defs>
<clipPath id="clip0_10_131">
<rect width="890.106" height="611.972" fill="white" transform="matrix(-1 0 0 1 890.106 0)"/>
</clipPath>
</defs>
</svg>
