<svg xmlns="http://www.w3.org/2000/svg" width="768" height="768.1004803618015" viewBox="0 0 822.9219970703125 823.0296630859375" version="1.1">
<g transform="translate(11.461000442504883,11.568673133850098)"><path d="" stroke="none" fill="#111111" fill-rule="evenodd"/><path d="M 370 8.640 C 318.760 13.301, 273.274 25.690, 229.500 46.908 C 189.178 66.452, 157.619 88.657, 125.651 119.974 C 62.293 182.043, 22.991 260.792, 10.775 350.148 C 8.831 364.368, 8.539 370.867, 8.539 400 C 8.539 429.133, 8.831 435.632, 10.775 449.852 C 16.701 493.198, 28.443 532.406, 46.908 570.500 C 66.452 610.822, 88.657 642.381, 119.974 674.349 C 182.043 737.707, 260.792 777.009, 350.148 789.225 C 364.368 791.169, 370.867 791.461, 400 791.461 C 429.133 791.461, 435.632 791.169, 449.852 789.225 C 525.574 778.873, 593.632 749.072, 651.679 700.849 C 667.834 687.427, 692.539 662.271, 705.542 646 C 751.081 589.017, 779.215 523.073, 789.225 449.852 C 791.169 435.632, 791.461 429.133, 791.461 400 C 791.461 370.867, 791.169 364.368, 789.225 350.148 C 778.873 274.426, 749.072 206.368, 700.849 148.321 C 687.427 132.166, 662.271 107.461, 646 94.458 C 589.335 49.172, 522.999 20.772, 450.884 10.923 C 438.689 9.257, 429.177 8.761, 405 8.526 C 388.225 8.364, 372.475 8.415, 370 8.640 M 372 21.616 C 278.738 29.702, 196.361 67.574, 131.967 131.967 C 71.557 192.378, 35.131 267.154, 23.320 355 C 20.725 374.295, 20.725 425.705, 23.320 445 C 35.131 532.846, 71.557 607.622, 131.967 668.033 C 192.378 728.443, 267.154 764.869, 355 776.680 C 374.295 779.275, 425.705 779.275, 445 776.680 C 532.846 764.869, 607.622 728.443, 668.033 668.033 C 728.443 607.622, 764.869 532.846, 776.680 445 C 778.110 434.369, 778.496 424.805, 778.496 400 C 778.496 365.565, 777.592 355.502, 771.855 326.041 C 754.310 235.945, 702.234 152.873, 628.500 97.360 C 575.358 57.351, 514.412 32.673, 446 23.463 C 434.079 21.858, 383.710 20.601, 372 21.616 M 380.500 33.593 C 343.443 36.439, 316.695 41.530, 285.733 51.631 C 243.374 65.449, 205.007 86.323, 168.559 115.380 C 155.610 125.704, 125.704 155.610, 115.380 168.559 C 69.478 226.135, 43.119 290.131, 34.881 364 C 33.228 378.822, 33.228 421.178, 34.881 436 C 43.119 509.869, 69.478 573.865, 115.380 631.441 C 125.704 644.390, 155.610 674.296, 168.559 684.620 C 226.135 730.522, 290.131 756.881, 364 765.119 C 378.822 766.772, 421.178 766.772, 436 765.119 C 509.869 756.881, 573.865 730.522, 631.441 684.620 C 644.390 674.296, 674.296 644.390, 684.620 631.441 C 730.522 573.865, 756.881 509.869, 765.119 436 C 766.772 421.178, 766.772 378.822, 765.119 364 C 756.881 290.131, 730.522 226.135, 684.620 168.559 C 674.296 155.610, 644.390 125.704, 631.441 115.380 C 574.911 70.312, 511.694 43.860, 440.500 35.485 C 427.851 33.997, 390.555 32.821, 380.500 33.593 M 374.239 67.212 C 373.394 68.230, 376.274 76.645, 386.324 102.524 L 399.517 136.500 407.605 136.788 L 415.693 137.076 418.272 131.288 C 427.621 110.311, 444.035 69.534, 443.594 68.384 C 442.825 66.380, 425.718 66.425, 423.706 68.437 C 422.916 69.227, 419.187 78.452, 415.418 88.937 C 411.650 99.421, 408.327 107.986, 408.033 107.969 C 407.740 107.952, 404.686 99.289, 401.247 88.719 C 397.808 78.148, 394.658 68.999, 394.247 68.387 C 393.050 66.604, 375.594 65.579, 374.239 67.212 M 331 74.894 C 319.725 77.467, 309.938 79.920, 309.250 80.345 C 308.563 80.770, 308 82.452, 308 84.083 C 308 88.418, 320.763 145.009, 322.105 146.627 C 322.732 147.382, 324.202 147.992, 325.372 147.983 C 329.820 147.947, 371.384 138, 372.183 136.780 C 373.113 135.360, 372.280 128.475, 370.849 125.750 C 369.646 123.460, 369.296 123.486, 353.358 127.032 C 345.862 128.699, 339.511 129.845, 339.244 129.578 C 338.713 129.047, 335.954 117.685, 336.292 117.419 C 336.406 117.329, 340.985 116.279, 346.467 115.086 C 351.948 113.893, 356.801 112.373, 357.251 111.709 C 358.205 110.300, 357.389 103.596, 355.933 100.875 C 354.668 98.510, 353.103 98.528, 342.396 101.024 C 337.622 102.137, 333.500 102.833, 333.237 102.570 C 332.712 102.045, 329.957 90.681, 330.292 90.422 C 330.406 90.334, 337.011 88.833, 344.968 87.087 C 352.926 85.341, 359.804 83.370, 360.253 82.706 C 361.205 81.300, 360.388 74.594, 358.933 71.875 C 357.503 69.203, 354.521 69.525, 331 74.894 M 464.760 73.245 C 463.728 74.038, 460.154 85.543, 455.063 104.464 C 447.042 134.271, 446.197 138.386, 447.883 139.428 C 449.404 140.368, 493.036 152, 495.040 152 C 497.777 152, 500.907 141.478, 498.798 139.369 C 498.023 138.594, 491.339 136.328, 483.944 134.332 C 476.550 132.337, 470.315 130.549, 470.089 130.358 C 469.398 129.775, 472.075 119.072, 473.065 118.460 C 473.577 118.144, 478.228 119.038, 483.402 120.448 C 488.576 121.857, 493.503 122.744, 494.352 122.418 C 495.236 122.079, 496.425 119.460, 497.135 116.287 C 498.671 109.422, 498.521 109.283, 486.101 106.081 C 481.069 104.784, 477 103.204, 477 102.549 C 477 101.897, 477.699 99.009, 478.554 96.131 C 479.765 92.052, 480.481 91.006, 481.804 91.384 C 495.095 95.183, 506.478 98, 508.535 98 C 510.519 98, 511.431 97.213, 512.551 94.532 C 513.348 92.625, 514 89.736, 514 88.112 C 514 84.616, 513.824 84.546, 487 77.481 C 477.375 74.946, 468.801 72.673, 467.948 72.431 C 467.094 72.189, 465.660 72.555, 464.760 73.245 M 528.540 93.602 C 527.030 95.113, 501.496 144.798, 499.632 149.854 C 498.974 151.637, 499.217 152.640, 500.632 153.987 C 501.659 154.966, 511.572 160.408, 522.660 166.080 C 540.784 175.352, 542.998 176.248, 544.573 174.947 C 546.821 173.090, 550.298 165.291, 549.473 163.956 C 549.126 163.394, 543.027 160.021, 535.921 156.460 C 528.814 152.899, 523 149.689, 523 149.327 C 523 148.965, 528.175 138.606, 534.500 126.308 C 540.825 114.010, 546 102.840, 546 101.486 C 546 99.442, 544.818 98.430, 539.025 95.513 C 531.045 91.494, 530.710 91.433, 528.540 93.602 M 268.542 97.069 C 264.739 98.017, 237.823 110.322, 235.250 112.289 C 234.563 112.815, 234 114.036, 234 115.004 C 234 116.843, 259.965 171.048, 262.048 173.558 C 264.061 175.984, 266.501 175.264, 281.191 167.904 C 297.562 159.703, 301.873 156.540, 306.199 149.555 C 312.206 139.857, 311.027 125.108, 303.239 112.502 C 299.655 106.699, 294.088 101.134, 289.500 98.765 C 284.890 96.385, 274.622 95.554, 268.542 97.069 M 264.657 114.402 C 261.444 115.750, 258.559 117.108, 258.247 117.420 C 257.711 117.956, 273.386 151.568, 274.987 153.317 C 276.218 154.663, 284.748 150.052, 288.110 146.222 C 290.981 142.952, 291.199 142.219, 290.710 137.475 C 290.077 131.350, 284.498 119.740, 280.252 115.712 C 276.122 111.796, 271.748 111.429, 264.657 114.402 M 587.500 134.983 C 576.871 137.742, 565.165 148.158, 559.775 159.654 C 555.726 168.290, 555.406 177.609, 558.889 185.432 C 561.790 191.947, 573.716 203.570, 581.532 207.500 C 586.723 210.109, 588.542 210.493, 595.500 210.446 C 602.263 210.400, 604.349 209.953, 608.989 207.558 C 616.473 203.694, 625.055 194.666, 629.149 186.349 C 632.106 180.342, 632.500 178.599, 632.500 171.521 C 632.500 164.515, 632.128 162.828, 629.559 158.191 C 626.418 152.521, 615.074 141.124, 609.916 138.457 C 602.255 134.495, 594.195 133.246, 587.500 134.983 M 591.882 154 C 587.582 156.273, 579.613 164.878, 576.919 170.158 C 575.864 172.227, 575.002 175.851, 575.004 178.210 C 575.013 189.267, 587.115 196.612, 596.947 191.528 C 604.481 187.632, 615 173.459, 615 167.205 C 615 163.181, 611.877 157.923, 607.681 154.884 C 602.912 151.430, 597.337 151.118, 591.882 154 M 172.896 163.993 C 167.807 166.683, 141 195.261, 141 197.996 C 141 199.508, 144.754 203.135, 166.522 222.652 C 193.345 246.702, 190.481 244.570, 193.400 242.657 C 197.618 239.894, 218.392 216.191, 221.250 210.880 C 225.558 202.878, 224.759 193.670, 219.208 187.329 C 214.416 181.855, 207.457 179.735, 201.598 181.963 C 199.187 182.879, 199.093 182.785, 199.647 180.015 C 200.037 178.067, 199.482 175.562, 197.970 172.439 C 193.488 163.180, 181.851 159.260, 172.896 163.993 M 376.500 167.015 C 305.646 174.870, 244.180 212.098, 204.818 271 C 195.744 284.578, 183.174 310.262, 178.145 325.500 C 169.518 351.641, 166.520 370.855, 166.520 400 C 166.520 422.756, 167.455 432.072, 171.642 451 C 179.106 484.750, 196.211 520.131, 218.308 547.525 C 250.434 587.354, 298.770 617.250, 349 628.358 C 367.928 632.545, 377.244 633.480, 400 633.480 C 422.756 633.480, 432.072 632.545, 451 628.358 C 484.750 620.894, 520.131 603.789, 547.525 581.692 C 587.354 549.566, 617.250 501.230, 628.358 451 C 632.545 432.072, 633.480 422.756, 633.480 400 C 633.480 377.244, 632.545 367.928, 628.358 349 C 624.457 331.360, 618.666 315.073, 610.047 297.500 C 586.354 249.195, 550.737 213.582, 502.500 189.968 C 479.636 178.775, 459.400 172.371, 434.500 168.448 C 422.717 166.592, 388.046 165.736, 376.500 167.015 M 170.307 186.479 C 167.388 189.492, 165 192.363, 165 192.858 C 165 193.354, 167.032 195.424, 169.515 197.459 L 174.031 201.159 178.481 196.330 C 183.762 190.598, 184.622 188.531, 182.995 185.491 C 181.936 183.511, 178.170 181, 176.260 181 C 175.904 181, 173.225 183.465, 170.307 186.479 M 630 206.019 C 608.916 220.383, 603.436 224.569, 603.187 226.499 C 602.986 228.059, 604.337 231.079, 606.974 234.962 C 611.845 242.135, 613.374 242.440, 620.513 237.665 C 623.256 235.830, 626.702 233.552, 628.170 232.602 L 630.840 230.875 634.792 236.687 C 643.792 249.925, 652.708 255.318, 661.805 253.028 C 678.229 248.892, 686.326 236.099, 681.488 221.928 C 679.252 215.379, 660.956 188.561, 658.500 188.232 C 657.262 188.066, 646.409 194.839, 630 206.019 M 189.895 204.250 L 183.925 210.500 189.212 215.170 C 194.232 219.604, 194.596 219.756, 196.395 218.170 C 199.603 215.343, 206 206.896, 206 205.487 C 206 204.754, 204.835 202.769, 203.411 201.077 C 199.434 196.351, 196.865 196.954, 189.895 204.250 M 650.704 217.184 L 643.034 222.250 644.767 225.223 C 645.720 226.858, 648.018 229.536, 649.873 231.175 C 653.633 234.496, 656.187 234.427, 661.187 230.867 C 666.090 227.376, 665.900 222.319, 660.594 215.127 L 658.374 212.119 650.704 217.184 M 129.259 214.250 C 126.033 218.339, 105.905 256.270, 106.187 257.731 C 106.552 259.630, 161.140 290.902, 164.199 290.965 C 165.134 290.984, 166.981 289.538, 168.304 287.750 C 172.454 282.142, 190 249.498, 190 247.384 C 190 244.938, 183.033 240.712, 179.774 241.182 C 178.114 241.421, 175.889 244.482, 170.823 253.500 C 167.116 260.100, 163.909 265.950, 163.697 266.500 C 163.482 267.059, 161.369 266.440, 158.906 265.098 C 151.404 261.008, 151.515 261.592, 156.490 252.465 C 158.971 247.915, 161 243.265, 161 242.132 C 161 239.922, 154.735 235, 151.923 235 C 149.729 235, 148.031 237.161, 143.080 246.251 L 138.859 254.002 134.179 251.336 C 131.606 249.870, 129.112 248.335, 128.638 247.924 C 128.165 247.513, 131.053 241.232, 135.056 233.966 C 143.123 219.327, 143.138 219.119, 136.404 215.266 C 131.907 212.694, 130.630 212.512, 129.259 214.250 M 666.089 262.520 C 650.462 268.776, 636.993 274.579, 636.156 275.415 C 634.795 276.776, 635.575 279.329, 643.579 299.718 C 651.730 320.481, 652.745 322.526, 655.033 322.794 C 658.153 323.160, 664.897 320.431, 665.637 318.503 C 665.940 317.714, 663.725 310.866, 660.715 303.284 L 655.242 289.500 659.871 287.311 C 667.220 283.837, 667.381 283.936, 671.439 294.409 C 673.444 299.584, 675.749 304.073, 676.561 304.385 C 677.372 304.696, 680.166 304.163, 682.768 303.200 C 688.882 300.938, 689.109 299.064, 684.611 288 C 682.711 283.325, 681.458 279.195, 681.828 278.822 C 683.129 277.508, 692.925 274.070, 693.340 274.780 C 693.572 275.176, 696.113 281.495, 698.988 288.823 C 701.863 296.150, 704.825 302.379, 705.570 302.665 C 707.604 303.446, 716.739 300.123, 717.417 298.357 C 717.993 296.855, 703.213 257.728, 700.378 253.250 C 699.561 251.959, 698.004 251.031, 696.727 251.073 C 695.502 251.113, 681.715 256.264, 666.089 262.520 M 92.019 288.150 C 90.252 295.674, 90.104 297.509, 91.185 298.481 C 91.908 299.132, 99.025 302.552, 107 306.082 L 121.500 312.500 113.500 313.290 C 109.100 313.724, 102.353 314.399, 98.506 314.790 L 91.513 315.500 90.127 320.692 C 89.365 323.548, 88.996 326.547, 89.307 327.357 C 89.618 328.167, 95.301 332.076, 101.936 336.044 C 108.571 340.011, 114 343.386, 114 343.543 C 114 343.700, 106.199 343.576, 96.664 343.268 L 79.328 342.708 77.152 352.038 C 75.550 358.908, 75.281 361.556, 76.134 362.083 C 77.338 362.827, 140.828 362.225, 144.714 361.432 C 147.200 360.924, 149.215 355.371, 149.395 348.527 L 149.500 344.555 137.295 337.527 C 130.582 333.662, 124.816 330.209, 124.482 329.854 C 124.148 329.499, 129.641 328.911, 136.688 328.547 C 154.538 327.626, 154.742 327.570, 155.995 323.176 C 157.982 316.210, 158.298 311.491, 156.857 310.322 C 154.783 308.639, 96.486 279, 95.250 279 C 94.654 279, 93.200 283.117, 92.019 288.150 M 686.396 319.954 C 670.938 322.550, 657.551 324.958, 656.646 325.306 C 655.499 325.746, 655 327.146, 655 329.919 C 655 335.830, 656.999 344.062, 658.581 344.669 C 659.343 344.962, 664.305 344.462, 669.608 343.558 C 674.910 342.654, 679.397 342.063, 679.578 342.245 C 679.760 342.427, 680.170 344.358, 680.490 346.538 L 681.072 350.500 671.055 356.480 C 665.546 359.768, 660.852 362.942, 660.626 363.532 C 660.399 364.123, 660.832 368.407, 661.587 373.053 C 662.342 377.699, 662.969 381.613, 662.980 381.750 C 663.100 383.255, 668.122 380.750, 676.731 374.890 L 687.177 367.779 690.338 370.828 C 692.077 372.505, 694.767 374.355, 696.315 374.939 C 703.101 377.497, 716.302 375.141, 721.988 370.356 C 729.322 364.186, 730.233 356.843, 726.498 334 C 725.014 324.925, 723.340 316.938, 722.777 316.250 C 721.246 314.377, 717.070 314.802, 686.396 319.954 M 701 338.377 L 694.500 339.509 694.806 343.005 C 695.605 352.156, 699.794 356.863, 705.938 355.514 C 710.770 354.452, 713.002 351.507, 712.986 346.211 C 712.958 336.376, 712.857 336.311, 701 338.377 M 703.896 423.654 L 702.500 432.453 695.150 433.677 C 691.107 434.350, 687.282 435.084, 686.650 435.308 C 686.017 435.532, 689.021 437.467, 693.324 439.607 L 701.147 443.500 700.510 448 C 700.160 450.475, 699.622 454.300, 699.315 456.500 L 698.758 460.500 705.129 454.329 L 711.500 448.159 719.273 452.103 L 727.046 456.047 723.092 448.183 L 719.138 440.319 725.039 433.782 L 730.939 427.244 723.719 428.621 C 719.749 429.378, 715.802 429.998, 714.949 429.999 C 714.040 430, 711.719 426.864, 709.345 422.427 L 705.292 414.854 703.896 423.654 M 101.363 417.101 C 100.742 417.871, 98.809 421.343, 97.068 424.819 C 94.157 430.627, 93.684 431.094, 91.201 430.603 C 89.715 430.309, 86.700 429.789, 84.500 429.447 C 82.300 429.105, 79.623 428.581, 78.551 428.282 C 77.284 427.929, 78.678 430.104, 82.534 434.495 L 88.466 441.252 84.706 448.266 C 82.639 452.124, 81.138 455.471, 81.371 455.704 C 81.604 455.938, 85.054 454.487, 89.037 452.481 L 96.279 448.834 102.779 455.167 C 106.355 458.650, 109.012 460.728, 108.685 459.785 C 108.358 458.842, 107.792 454.784, 107.428 450.767 L 106.766 443.464 114.419 440.101 C 118.628 438.251, 121.914 436.580, 121.721 436.388 C 121.528 436.195, 117.846 435.363, 113.539 434.539 C 109.231 433.715, 105.510 432.843, 105.269 432.603 C 105.029 432.362, 104.305 428.461, 103.662 423.934 C 102.754 417.543, 102.239 416.015, 101.363 417.101 M 682.500 461.025 C 674.275 462.746, 670.657 468.078, 664.317 487.824 C 660.227 500.563, 659.885 502.313, 661.220 503.649 C 662.900 505.328, 711.196 520.951, 714.801 520.981 C 717.455 521.003, 719.668 516.701, 720.637 509.634 C 721.223 505.357, 721.187 505.292, 717.365 503.810 C 715.239 502.986, 711.362 501.733, 708.750 501.026 C 703.853 499.700, 703.343 498.858, 704.924 494.699 C 705.790 492.421, 706.478 492.224, 715.865 491.558 C 721.512 491.158, 726.282 490.336, 726.801 489.674 C 728.614 487.358, 732.001 475.601, 731.111 474.711 C 730.588 474.188, 725.681 474.394, 719.261 475.207 L 708.302 476.595 706.110 471.815 C 704.516 468.341, 702.722 466.335, 699.540 464.470 C 694.657 461.609, 687.057 460.072, 682.500 461.025 M 109.500 472.056 C 97.400 476.428, 85.627 480.700, 83.338 481.551 C 81.049 482.402, 78.932 483.734, 78.634 484.510 C 78.019 486.115, 84.730 505.560, 88.396 512.795 C 91.395 518.713, 98.415 525.322, 103.476 526.992 C 108.953 528.800, 119.263 527.752, 127.058 524.596 C 145.422 517.161, 149.106 505.704, 140.895 481.567 C 136.174 467.692, 134.442 463.978, 132.724 464.054 C 132.051 464.083, 121.600 467.684, 109.500 472.056 M 681.765 479.707 C 680.065 481.585, 677 488.127, 677 489.876 C 677 490.777, 688.157 495, 690.536 495 C 691.844 495, 694 488.563, 694 484.657 C 694 479.868, 684.938 476.202, 681.765 479.707 M 119 487.472 C 114.325 489.205, 107.029 491.873, 102.787 493.400 L 95.075 496.176 97.017 501.338 C 98.085 504.177, 100.182 507.567, 101.676 508.871 C 104.069 510.960, 105.115 511.184, 110.447 510.751 C 120.384 509.944, 130.141 504.272, 131.601 498.454 C 132.264 495.812, 129.720 485.491, 128.210 484.694 C 127.819 484.488, 123.675 485.738, 119 487.472 M 655.742 510.250 C 654.396 512.587, 649.797 521.181, 645.522 529.347 C 637.955 543.804, 637.799 544.242, 639.625 545.988 C 642.554 548.790, 687.125 572, 689.576 572 C 691.394 572, 693.328 569.030, 700.981 554.483 C 706.049 544.849, 710.424 536.096, 710.702 535.032 C 711.070 533.623, 710.297 532.542, 707.854 531.052 C 701.607 527.244, 700.766 527.817, 694.007 540.486 L 687.880 551.973 682.874 549.436 C 680.120 548.041, 678.018 546.584, 678.203 546.199 C 678.388 545.815, 680.300 542.045, 682.453 537.823 C 685.834 531.191, 686.181 529.923, 685.006 528.507 C 683.105 526.216, 678.077 523.756, 676.519 524.354 C 675.803 524.629, 673.297 528.458, 670.950 532.863 L 666.683 540.873 661.841 538.420 C 659.179 537.070, 657 535.746, 657 535.476 C 657 535.207, 659.746 529.803, 663.102 523.468 C 669.732 510.952, 669.755 510.476, 663.872 507.434 C 659.611 505.231, 658.389 505.654, 655.742 510.250 M 128.283 531.301 C 116.064 538.560, 105.264 545.304, 104.283 546.287 C 102.572 548.001, 102.597 548.244, 104.896 552.287 C 115.845 571.540, 124.328 585, 125.513 585 C 127.849 585, 133.870 581.780, 134.474 580.208 C 134.782 579.404, 132.262 573.965, 128.873 568.123 C 125.484 562.280, 122.535 557.179, 122.319 556.786 C 121.896 556.016, 129.341 551, 130.907 551 C 131.428 551, 133.829 554.263, 136.244 558.250 C 138.943 562.707, 141.379 565.603, 142.567 565.767 C 145.202 566.132, 151 562.417, 151 560.365 C 151 559.449, 149.200 555.578, 147 551.762 C 144.800 547.946, 143 544.523, 143 544.155 C 143 543.787, 145.023 542.264, 147.495 540.770 L 151.990 538.055 153.360 540.278 C 154.113 541.500, 157.091 546.471, 159.977 551.324 C 162.863 556.178, 165.808 560.373, 166.522 560.647 C 167.236 560.921, 169.210 560.426, 170.910 559.547 C 172.609 558.668, 174 558.188, 174 558.481 C 174 558.775, 167.914 571.181, 160.475 586.051 C 151.845 603.301, 147.230 613.582, 147.725 614.455 C 149.450 617.498, 155.145 623, 156.570 623 C 159.402 623, 216 602.530, 215.986 601.511 C 215.960 599.670, 205.866 589, 204.150 589 C 203.223 589, 195.317 591.931, 186.580 595.514 C 177.843 599.097, 170.533 601.866, 170.334 601.667 C 170.136 601.469, 173.804 594.533, 178.487 586.254 C 183.169 577.976, 187 570.430, 187 569.487 C 187 568.543, 184.769 565.197, 182.043 562.049 C 179.316 558.902, 175.542 553.441, 173.656 549.913 C 171.771 546.386, 166.891 537.875, 162.814 531 C 156.755 520.785, 154.952 518.464, 152.950 518.301 C 151.357 518.171, 142.732 522.716, 128.283 531.301 M 633.618 550.327 C 631.903 552.157, 625.821 559.812, 620.102 567.339 C 611.622 578.499, 609.870 581.378, 610.602 582.951 C 611.799 585.521, 654.028 617.970, 656.197 617.987 C 658.192 618.002, 682.972 586.383, 682.989 583.801 C 683.001 581.889, 677.118 577, 674.806 577 C 673.977 577, 669.834 581.500, 665.598 587 C 661.363 592.500, 657.654 597, 657.358 597 C 656.350 597, 649.043 591.503, 649.021 590.729 C 649.010 590.304, 651.250 587.094, 654 583.595 C 656.750 580.095, 659 576.352, 659 575.276 C 659 572.621, 652.215 567.813, 650.086 568.958 C 649.214 569.428, 646.282 572.752, 643.572 576.345 C 638.246 583.406, 638.304 583.394, 632.544 578.679 L 629.587 576.259 637.294 566.205 C 641.532 560.676, 645 555.489, 645 554.679 C 645 553.320, 638.690 547, 637.333 547 C 637.005 547, 635.333 548.497, 633.618 550.327 M 601.114 589.801 C 598.301 592.441, 596 595.072, 596 595.647 C 596 596.222, 600.517 601.711, 606.038 607.846 C 611.559 613.981, 615.597 619, 615.011 619 C 614.426 619, 606.375 617.200, 597.121 615 C 587.867 612.800, 579.713 611, 579.001 611 C 576.766 611, 569 618.039, 569 620.065 C 569 621.145, 575.985 629.814, 584.861 639.748 C 605.179 662.488, 606.607 664, 607.771 664 C 608.303 664, 611.048 662.162, 613.869 659.915 C 617.418 657.089, 619 655.108, 619 653.490 C 619 651.938, 615.784 647.587, 609.451 640.575 C 604.200 634.759, 600.441 630, 601.099 630 C 601.757 630, 609.867 631.800, 619.121 634 C 628.375 636.200, 636.521 637.994, 637.223 637.988 C 639.093 637.969, 647 630.340, 647 628.554 C 647 627.190, 615.717 591.092, 610.772 586.750 C 607.834 584.171, 606.743 584.516, 601.114 589.801 M 220.344 613.044 C 206.604 615.754, 194.288 630.249, 193.236 644.950 C 192.603 653.797, 195.264 660.068, 202.594 667 C 221.699 685.069, 244.098 680.826, 255.384 657 C 259.201 648.943, 259.649 639.847, 256.542 633.500 C 253.644 627.581, 244.926 619.537, 237.765 616.175 C 230.381 612.709, 226.020 611.925, 220.344 613.044 M 558.250 624.690 C 554.752 627.136, 553.009 629.053, 553.026 630.431 C 553.040 631.569, 559.933 642.625, 568.344 655 C 580.626 673.072, 584.114 677.549, 586.068 677.751 C 589.344 678.088, 598 671.684, 598 668.923 C 598 666.865, 570.082 624.607, 567.165 622.250 C 564.891 620.413, 564.026 620.649, 558.250 624.690 M 224.500 628.393 C 220.537 630.129, 213.328 638.063, 210.946 643.310 C 207.204 651.552, 209.447 658.594, 217.069 662.536 C 224.995 666.635, 234.049 660.775, 240.657 647.269 C 244.538 639.335, 242.487 632.820, 234.887 628.942 C 230.463 626.685, 228.619 626.588, 224.500 628.393 M 535.691 638.478 C 523.802 641.803, 512.954 649.424, 508.678 657.455 C 506.963 660.676, 506.522 663.232, 506.512 670 C 506.501 677.681, 506.821 679.126, 509.836 685 C 519.577 703.980, 533.888 708.300, 554.500 698.481 C 562.634 694.606, 568.816 689.614, 571.384 684.846 L 573.196 681.481 567.440 669.220 C 563.162 660.108, 561.128 656.819, 559.520 656.416 C 558.136 656.068, 553.505 657.675, 546.678 660.871 C 534.822 666.421, 534.141 667.439, 538.026 673.810 C 540.186 677.354, 541.226 677.412, 547.279 674.332 C 548.808 673.555, 550.417 673.140, 550.856 673.411 C 552.323 674.318, 555.262 681.875, 554.708 683.318 C 553.808 685.664, 545.711 689.001, 540.934 688.993 C 533.471 688.982, 527.475 683.355, 524.344 673.424 C 520.592 661.518, 527.734 652.403, 542.729 649.963 C 545.778 649.466, 548.414 648.920, 548.585 648.748 C 548.757 648.576, 549.033 645.975, 549.199 642.968 L 549.500 637.500 545 637.317 C 542.525 637.216, 538.336 637.738, 535.691 638.478 M 272.280 641.801 C 270.809 642.742, 250 691.485, 250 693.992 C 250 694.962, 250.564 696.223, 251.252 696.795 C 253.441 698.611, 262.903 701.974, 264.308 701.435 C 265.051 701.150, 267.013 697.673, 268.668 693.708 C 272.124 685.430, 271.737 685.543, 282.989 689.545 C 295.235 693.900, 302.013 692.253, 308.256 683.406 C 315.221 673.534, 313.919 661.865, 305.141 655.491 C 302.588 653.638, 295.100 649.863, 288.500 647.103 C 273.246 640.724, 273.721 640.879, 272.280 641.801 M 487.873 659.454 C 479.608 661.733, 479.705 661.245, 484.021 678.921 C 485.682 685.725, 486.891 691.443, 486.706 691.627 C 486.521 691.812, 480.165 686.514, 472.581 679.855 L 458.792 667.746 453.925 668.323 C 447.622 669.069, 444.994 670.535, 445.027 673.285 C 445.075 677.337, 457.807 726.236, 459.168 727.596 C 460.285 728.714, 461.471 728.710, 466.361 727.573 C 475.964 725.341, 475.984 725.278, 472.098 709.450 C 470.267 701.996, 468.963 695.704, 469.200 695.467 C 469.436 695.230, 475.770 700.429, 483.274 707.018 C 491.434 714.183, 497.762 719, 499.017 719 C 503.482 719, 509.946 716.746, 510.501 714.995 C 511.145 712.967, 498.437 661.231, 496.814 659.276 C 495.543 657.744, 493.964 657.775, 487.873 659.454 M 280.220 666.430 L 277.194 673.860 281.117 675.430 C 286.971 677.772, 290.497 677.454, 292.927 674.365 C 295.481 671.119, 295.621 665.872, 293.213 663.693 C 291.696 662.320, 284.934 659, 283.655 659 C 283.431 659, 281.885 662.344, 280.220 666.430 M 327.655 664.459 C 322.203 666.403, 319.188 669.627, 317.496 675.324 C 314.870 684.169, 317.900 689.670, 330.509 698.949 C 335.127 702.347, 339.189 706.021, 339.536 707.113 C 340.333 709.625, 337.552 714, 335.158 714 C 331.500 714, 323.266 710.949, 318.620 707.872 L 313.830 704.699 309.711 708.818 L 305.592 712.937 308.011 715.512 C 313.350 721.195, 329.014 726.984, 339 726.966 C 350.297 726.945, 357 720.810, 357 710.490 C 357 703.201, 353.429 698.293, 343 691.251 C 335.589 686.247, 333.455 683.455, 334.580 680.235 C 336.298 675.321, 345.087 676.069, 352.855 681.791 L 356.209 684.261 360.346 680.125 C 363.747 676.724, 364.291 675.678, 363.407 674.244 C 361.503 671.157, 351.964 666.152, 344.937 664.554 C 336.672 662.674, 332.721 662.652, 327.655 664.459 M 411.126 672.040 C 403.854 672.538, 399.279 673.302, 398.439 674.159 C 396.607 676.028, 399.536 729.754, 401.589 731.934 C 402.747 733.164, 405.882 733.199, 423.671 732.182 C 435.073 731.531, 444.789 730.611, 445.262 730.138 C 445.734 729.666, 445.981 727.079, 445.810 724.390 L 445.500 719.500 432 719.579 C 423.374 719.630, 418.235 719.269, 417.765 718.579 C 417.361 717.986, 417.024 715.407, 417.015 712.849 L 417 708.199 426.037 707.849 C 435.575 707.481, 436.953 706.784, 436.985 702.315 C 436.993 701.113, 436.538 698.915, 435.973 697.430 L 434.947 694.730 425.473 695.425 L 416 696.121 416 690.667 C 416 684.203, 416.266 684.030, 426.332 683.926 C 430.274 683.885, 435.525 683.548, 438 683.176 L 442.500 682.500 442.500 677 L 442.500 671.500 432.500 671.381 C 427 671.315, 417.382 671.612, 411.126 672.040 M 373.295 693.180 C 363.375 695.822, 365.731 710, 376.090 710 C 381.505 710, 385.200 706.615, 385.200 701.655 C 385.200 695.368, 379.722 691.469, 373.295 693.180" stroke="none" fill="#aa0000" fill-rule="evenodd"/></g></svg>