<svg xmlns="http://www.w3.org/2000/svg" width="768" height="768.1004803618015" viewBox="0 0 822.9219970703125 823.0296630859375" version="1.1">
<g transform="translate(11.461000442504883,11.568673133850098)"><path d="" stroke="none" fill="#111111" fill-rule="evenodd"/><path d="M 370 8.640 C 318.760 13.301, 273.274 25.690, 229.500 46.908 C 189.178 66.452, 157.619 88.657, 125.651 119.974 C 62.293 182.043, 22.991 260.792, 10.775 350.148 C 8.831 364.368, 8.539 370.867, 8.539 400 C 8.539 429.133, 8.831 435.632, 10.775 449.852 C 16.701 493.198, 28.443 532.406, 46.908 570.500 C 66.452 610.822, 88.657 642.381, 119.974 674.349 C 182.043 737.707, 260.792 777.009, 350.148 789.225 C 364.368 791.169, 370.867 791.461, 400 791.461 C 429.133 791.461, 435.632 791.169, 449.852 789.225 C 525.574 778.873, 593.632 749.072, 651.679 700.849 C 667.834 687.427, 692.539 662.271, 705.542 646 C 751.081 589.017, 779.215 523.073, 789.225 449.852 C 791.169 435.632, 791.461 429.133, 791.461 400 C 791.461 370.867, 791.169 364.368, 789.225 350.148 C 778.873 274.426, 749.072 206.368, 700.849 148.321 C 687.427 132.166, 662.271 107.461, 646 94.458 C 589.335 49.172, 522.999 20.772, 450.884 10.923 C 438.689 9.257, 429.177 8.761, 405 8.526 C 388.225 8.364, 372.475 8.415, 370 8.640 M 372 21.616 C 278.738 29.702, 196.361 67.574, 131.967 131.967 C 71.557 192.378, 35.131 267.154, 23.320 355 C 20.725 374.295, 20.725 425.705, 23.320 445 C 35.131 532.846, 71.557 607.622, 131.967 668.033 C 192.378 728.443, 267.154 764.869, 355 776.680 C 374.295 779.275, 425.705 779.275, 445 776.680 C 532.846 764.869, 607.622 728.443, 668.033 668.033 C 728.443 607.622, 764.869 532.846, 776.680 445 C 778.110 434.369, 778.496 424.805, 778.496 400 C 778.496 365.565, 777.592 355.502, 771.855 326.041 C 754.310 235.945, 702.234 152.873, 628.500 97.360 C 575.358 57.351, 514.412 32.673, 446 23.463 C 434.079 21.858, 383.710 20.601, 372 21.616 M 380.500 33.593 C 343.443 36.439, 316.695 41.530, 285.733 51.631 C 243.374 65.449, 205.007 86.323, 168.559 115.380 C 155.610 125.704, 125.704 155.610, 115.380 168.559 C 69.478 226.135, 43.119 290.131, 34.881 364 C 33.228 378.822, 33.228 421.178, 34.881 436 C 43.119 509.869, 69.478 573.865, 115.380 631.441 C 125.704 644.390, 155.610 674.296, 168.559 684.620 C 226.135 730.522, 290.131 756.881, 364 765.119 C 378.822 766.772, 421.178 766.772, 436 765.119 C 509.869 756.881, 573.865 730.522, 631.441 684.620 C 644.390 674.296, 674.296 644.390, 684.620 631.441 C 730.522 573.865, 756.881 509.869, 765.119 436 C 766.772 421.178, 766.772 378.822, 765.119 364 C 756.881 290.131, 730.522 226.135, 684.620 168.559 C 674.296 155.610, 644.390 125.704, 631.441 115.380 C 574.911 70.312, 511.694 43.860, 440.500 35.485 C 427.851 33.997, 390.555 32.821, 380.500 33.593 M 354 62.586 C 337.052 64.259, 336.166 64.490, 335.428 67.431 C 334.473 71.236, 341.691 146.923, 343.180 148.717 C 344.236 149.989, 346.005 150.136, 353.477 149.574 C 358.632 149.186, 363.464 148.265, 364.750 147.425 C 367.361 145.718, 367.471 144.142, 365.934 130.360 C 365.348 125.101, 365.010 120.683, 365.184 120.540 C 365.358 120.398, 367.608 120.006, 370.184 119.669 L 374.868 119.056 382.032 132.629 L 389.195 146.202 399.348 145.487 C 409.538 144.770, 413 143.849, 413 141.859 C 413 141.270, 409.577 134.767, 405.394 127.409 L 397.787 114.030 402.267 109.048 C 411.615 98.651, 411.412 79.827, 401.840 69.442 C 393.966 60.900, 384.629 59.562, 354 62.586 M 440.234 62.250 C 439.678 62.938, 438.646 66.108, 437.942 69.295 C 436.258 76.917, 437.011 77.620, 449.999 80.547 C 455.595 81.808, 460.403 83.070, 460.684 83.351 C 460.965 83.632, 458.226 97.293, 454.597 113.708 C 450.969 130.124, 448 144.764, 448 146.242 C 448 149.503, 449.347 150.276, 458.697 152.380 C 466.779 154.199, 468.924 154.335, 470.796 153.147 C 471.523 152.686, 475.133 138.595, 479.029 121.013 C 482.845 103.791, 486.199 89.468, 486.482 89.185 C 486.766 88.901, 491.386 89.646, 496.749 90.840 C 502.112 92.034, 507.524 93.009, 508.775 93.006 C 511.480 92.999, 512.916 89.903, 513.714 82.354 C 514.174 78.007, 513.967 77.053, 512.379 76.203 C 510.031 74.947, 447.011 61, 443.683 61 C 442.342 61, 440.790 61.563, 440.234 62.250 M 296.027 75.090 C 287.198 78.676, 286 79.547, 286 82.385 C 286 83.562, 290.271 95.032, 295.492 107.875 C 300.712 120.717, 305.450 132.958, 306.020 135.076 C 308.247 143.344, 301.324 151.060, 291.010 151.806 C 285.555 152.200, 285.005 152.028, 281.616 148.862 C 278.614 146.059, 276.306 141.275, 267.737 120.096 C 262.083 106.123, 256.697 94.212, 255.768 93.625 C 252.575 91.611, 234.712 99.020, 234.204 102.569 C 233.897 104.716, 252.760 152.216, 256.018 157.500 C 263.229 169.194, 277.748 174.258, 293.472 170.564 C 310.487 166.566, 324.505 156.258, 328.927 144.493 C 332.878 133.981, 331.997 129.421, 320.523 101 C 315.083 87.525, 309.988 75.487, 309.201 74.250 C 307.321 71.294, 305.013 71.441, 296.027 75.090 M 366.725 79.913 C 364.099 80.236, 361.904 80.842, 361.847 81.259 C 361.790 81.677, 362.067 86.575, 362.462 92.145 L 363.180 102.272 369.562 101.676 C 377.368 100.948, 381.336 99.017, 382.928 95.173 C 385.363 89.296, 381.196 80, 376.127 80 C 375.047 80, 373.564 79.848, 372.832 79.663 C 372.099 79.477, 369.351 79.590, 366.725 79.913 M 542.767 91.750 C 540.216 94.642, 504 160.349, 504 162.084 C 504 162.967, 504.788 164.374, 505.750 165.210 C 508.870 167.921, 555.438 193.411, 557.500 193.537 C 558.600 193.604, 563.080 197.350, 567.455 201.862 C 571.830 206.373, 576.330 210.294, 577.455 210.574 C 578.580 210.855, 585.991 210.168, 593.924 209.049 C 601.857 207.930, 608.496 207.162, 608.677 207.344 C 608.859 207.525, 608.110 213.485, 607.014 220.587 C 604.048 239.807, 603.671 238.227, 613.555 248.022 C 621.226 255.623, 622.242 256.324, 623.381 254.797 C 624.080 253.860, 626.151 243.060, 627.982 230.797 C 629.814 218.534, 631.605 207.404, 631.961 206.064 C 632.590 203.701, 633.284 203.533, 655.265 200.436 C 667.726 198.681, 678.614 196.978, 679.461 196.653 C 682.285 195.570, 681.062 193.517, 672.539 185.038 L 664.077 176.621 650.506 178.444 C 643.042 179.447, 636.681 180.014, 636.371 179.705 C 635.885 179.218, 638.001 162.971, 639.626 154.717 C 640.106 152.279, 639.148 150.883, 631.909 143.467 C 627.364 138.810, 623.039 135, 622.298 135 C 620.230 135, 619.551 137.831, 616.063 161 C 614.282 172.825, 612.516 182.826, 612.137 183.225 C 611.759 183.624, 601.561 185.302, 589.475 186.953 C 577.389 188.603, 566.259 190.179, 564.742 190.454 L 561.983 190.953 563.992 187.017 C 566.460 182.178, 566.528 179.763, 564.250 177.809 C 563.288 176.984, 556.087 172.783, 548.250 168.473 C 540.413 164.163, 534 160.284, 534 159.853 C 534 159.422, 535.626 156.110, 537.614 152.494 C 541.045 146.252, 541.336 145.989, 543.364 147.294 C 549.726 151.387, 562.990 158, 564.839 158 C 567.224 158, 571.692 151.790, 572.610 147.198 C 573.300 143.752, 572.255 142.826, 560 136.025 C 554.775 133.125, 550.382 130.652, 550.238 130.530 C 549.789 130.151, 557.335 117, 558.001 117 C 558.347 117, 565.573 120.825, 574.059 125.500 C 582.544 130.175, 590.245 134, 591.171 134 C 593.223 134, 595.939 130.679, 598.460 125.088 C 600.315 120.976, 600.314 120.870, 598.424 118.988 C 595.841 116.417, 548.016 90, 545.944 90 C 545.045 90, 543.616 90.787, 542.767 91.750 M 187.358 134.321 C 174.589 139.205, 161.569 150.964, 155.919 162.715 C 147.949 179.293, 153.160 197.631, 170.433 213.789 C 189.341 231.476, 210.518 230.586, 231.083 211.240 C 247.083 196.188, 250.574 180.509, 242.003 162.193 C 237.831 153.277, 223.928 139.286, 215.470 135.491 C 206.781 131.592, 195.698 131.131, 187.358 134.321 M 185.547 156.272 C 183.372 157.504, 180.110 160.456, 178.297 162.833 C 173.890 168.610, 173.796 174.283, 177.968 182.590 C 183.262 193.132, 197.287 204.970, 204.500 204.985 C 211.110 204.999, 219.073 199.575, 222.707 192.584 C 224.725 188.701, 223.991 181.711, 220.915 175.520 C 217.959 169.571, 206.820 157.984, 201.849 155.687 C 196.757 153.334, 190.326 153.565, 185.547 156.272 M 372.258 167.576 C 346.168 170.737, 321.818 178.025, 297.500 189.953 C 249.205 213.641, 213.641 249.205, 189.953 297.500 C 157.905 362.840, 157.905 437.160, 189.953 502.500 C 208.975 541.282, 235.170 571.238, 271 595.182 C 284.578 604.256, 310.262 616.826, 325.500 621.855 C 384.846 641.440, 446.941 637.298, 502.500 610.047 C 550.795 586.359, 586.359 550.795, 610.047 502.500 C 642.095 437.160, 642.095 362.840, 610.047 297.500 C 586.359 249.205, 550.795 213.641, 502.500 189.953 C 477.547 177.714, 453.828 170.716, 426.441 167.512 C 410.868 165.691, 387.597 165.718, 372.258 167.576 M 112.449 209.672 C 109.727 214.480, 107.151 219.292, 106.724 220.365 C 106.135 221.846, 108.182 226.050, 115.224 237.815 C 120.326 246.340, 124.647 253.684, 124.826 254.136 C 125.005 254.587, 116.480 255.079, 105.880 255.228 L 86.608 255.500 81.268 264.947 C 78.332 270.142, 76.065 275.092, 76.232 275.947 C 76.498 277.312, 80.351 277.500, 108.043 277.500 L 139.552 277.500 150.713 283.750 C 156.851 287.188, 162.732 290, 163.782 290 C 164.831 290, 166.372 289.212, 167.206 288.250 C 170.410 284.549, 176.131 272.947, 175.823 270.774 C 175.577 269.044, 172.749 266.933, 164 261.952 L 152.500 255.404 145.104 242.952 C 141.036 236.103, 133.836 223.975, 129.104 216 C 124.372 208.025, 119.802 201.372, 118.949 201.215 C 117.913 201.025, 115.751 203.838, 112.449 209.672 M 688.864 220.796 C 681.598 224.582, 681.488 226.420, 687.811 238.430 L 692.757 247.827 665.129 262.054 C 649.933 269.878, 636.712 276.962, 635.750 277.795 C 633.189 280.012, 633.543 281.954, 638.151 290.941 C 641.128 296.748, 642.960 299.203, 644.627 299.621 C 647.091 300.240, 646.867 300.345, 683.858 281.243 C 700.145 272.832, 704.402 271.007, 705.151 272.115 C 705.665 272.877, 708.079 277.403, 710.515 282.174 C 713.179 287.391, 715.727 291.096, 716.910 291.472 C 718.916 292.108, 728.794 287.778, 730.260 285.619 C 730.678 285.003, 730.772 283.448, 730.469 282.162 C 729.775 279.219, 700.258 222.118, 698.206 219.750 C 696.176 217.407, 695.145 217.522, 688.864 220.796 M 695.074 431.522 C 694.408 435.360, 693.419 440.577, 692.877 443.115 L 691.892 447.731 682.696 448.905 C 667.064 450.902, 667.317 450.532, 677.870 455.985 C 683.009 458.641, 687.687 461.287, 688.267 461.867 C 689.004 462.604, 688.822 465.915, 687.660 472.915 C 686.747 478.412, 686 483.482, 686 484.181 C 686 484.881, 689.497 481.976, 693.772 477.727 C 698.047 473.477, 702.154 470, 702.898 470 C 703.643 470, 708.546 472.322, 713.794 475.159 C 719.042 477.997, 723.072 479.684, 722.750 478.909 C 722.428 478.134, 720.236 473.326, 717.880 468.224 L 713.596 458.948 721.875 450.625 L 730.155 442.302 721.328 443.630 C 705.931 445.945, 707.206 446.511, 701.370 434.772 L 696.285 424.545 695.074 431.522 M 105.676 436.147 L 101.009 446.286 94.754 445.588 C 91.314 445.205, 86.025 444.646, 83 444.346 L 77.500 443.800 85.925 451.694 L 94.351 459.588 89.237 470.294 C 86.424 476.182, 84.327 481, 84.577 481 C 85.013 481, 91.930 477.287, 100.681 472.353 L 104.863 469.996 113.431 478.107 C 118.144 482.568, 121.993 485.831, 121.984 485.359 C 121.974 484.886, 121.111 479.776, 120.065 474.002 C 119.018 468.229, 118.361 463.306, 118.604 463.063 C 118.847 462.820, 123.423 460.245, 128.773 457.340 C 134.123 454.435, 138.275 451.999, 138 451.925 C 137.725 451.852, 132.550 451.051, 126.500 450.146 L 115.500 448.500 113.500 437.821 C 112.400 431.947, 111.240 426.887, 110.921 426.575 C 110.603 426.264, 108.242 430.571, 105.676 436.147 M 649.649 488.750 C 643.429 501.142, 623 544.887, 623 545.815 C 623 547.250, 627.721 550.451, 632.184 552.041 C 637.096 553.792, 638.034 552.922, 643.178 541.850 C 645.440 536.983, 647.387 533, 647.505 533 C 647.624 533, 659.528 538.625, 673.960 545.500 C 688.392 552.375, 701.210 558, 702.445 558 C 705.319 558, 707.082 555.912, 710.359 548.629 C 713.593 541.440, 713.685 538.661, 710.750 536.815 C 709.513 536.037, 697.250 530.082, 683.500 523.582 C 669.750 517.082, 658.352 511.632, 658.172 511.470 C 657.992 511.309, 659.718 507.145, 662.008 502.216 C 664.299 497.286, 666.021 492.184, 665.836 490.877 C 665.602 489.224, 664.141 487.815, 661.038 486.250 C 654.212 482.808, 652.437 483.197, 649.649 488.750 M 153.295 486.703 C 152.632 486.942, 145.107 498.018, 136.571 511.318 L 121.053 535.500 110.429 541 C 104.586 544.025, 99.369 547.314, 98.836 548.309 C 98.111 549.662, 98.653 551.799, 100.990 556.793 C 106.702 568.998, 107.890 569.281, 122.133 561.832 L 132.015 556.664 160.258 558.164 C 176.567 559.030, 189.237 559.299, 190.243 558.801 C 191.814 558.023, 191.496 556.960, 187.048 548.097 C 184.333 542.684, 181.374 537.974, 180.473 537.628 C 179.573 537.283, 174.486 536.997, 169.168 536.993 C 163.851 536.989, 156.496 536.702, 152.824 536.355 L 146.149 535.725 155.217 522.176 C 160.204 514.724, 164.482 507.874, 164.722 506.953 C 165.144 505.343, 156.873 487.616, 155.278 486.712 C 154.850 486.469, 153.958 486.465, 153.295 486.703 M 613.129 557.701 C 609.212 561.990, 606.005 566.333, 606.003 567.351 C 606.002 568.368, 606.967 574.339, 608.149 580.618 C 609.332 586.897, 610.119 592.188, 609.899 592.375 C 609.680 592.562, 603.900 592.131, 597.055 591.417 C 590.210 590.703, 584.100 590.430, 583.477 590.810 C 582.854 591.189, 579.306 594.744, 575.591 598.708 C 565.876 609.076, 565.924 609.134, 586.012 611.176 C 595.080 612.098, 605.233 613.138, 608.573 613.487 L 614.645 614.121 618.973 636.811 C 623.898 662.633, 623.730 662, 625.641 662 C 627.184 662, 638.771 650.131, 640.642 646.634 C 641.543 644.951, 641.241 641.597, 639.214 630.761 C 637.801 623.205, 636.837 616.863, 637.072 616.668 C 637.307 616.472, 644.002 616.951, 651.948 617.732 L 666.396 619.152 673.652 611.326 C 677.642 607.022, 680.928 602.733, 680.954 601.795 C 681.010 599.707, 680.588 599.633, 653.539 596.972 C 642.010 595.838, 632.492 594.818, 632.387 594.705 C 632.282 594.592, 630.240 584.601, 627.848 572.502 C 624.431 555.216, 623.152 550.439, 621.876 550.203 C 620.898 550.021, 617.418 553.005, 613.129 557.701 M 189.317 575.017 C 176.975 577.542, 162.244 589.667, 155.920 602.508 C 153.038 608.359, 152.445 610.750, 152.149 617.696 C 151.816 625.495, 151.993 626.336, 155.419 633.271 C 161.081 644.730, 173.065 655.937, 184.167 660.155 C 190.385 662.518, 201.432 662.599, 207.230 660.325 C 218.876 655.757, 229.928 645.223, 235.783 633.109 C 238.890 626.681, 239.364 624.721, 239.420 618.071 C 239.476 611.319, 239.084 609.611, 236.063 603.463 C 230.591 592.324, 217.661 580.261, 207.259 576.591 C 201.871 574.690, 194.203 574.018, 189.317 575.017 M 193.300 597.295 C 185.047 601.627, 174.867 613.068, 172.959 620.154 C 170.072 630.875, 180.711 643.134, 191.607 641.640 C 197.069 640.892, 201.112 638.387, 208.268 631.318 C 219.026 620.692, 221.401 611.515, 215.572 603.103 C 210.213 595.370, 201.363 593.063, 193.300 597.295 M 541.421 622.591 C 517.791 637.242, 516 638.526, 516 640.818 C 516 642.496, 552.186 701.357, 555.132 704.470 C 556.701 706.129, 557.445 706.271, 559.841 705.366 C 565.042 703.403, 604.246 678.555, 605.740 676.275 C 607.078 674.232, 606.982 673.645, 604.662 669.686 C 600.613 662.778, 599.617 662.287, 594.692 664.778 C 592.386 665.944, 585.441 670.059, 579.257 673.923 L 568.015 680.947 564.063 674.731 L 560.111 668.515 568.305 663.354 C 583.013 654.092, 582.869 654.338, 578.022 646.696 C 575.957 643.439, 574.373 642, 572.856 642 C 571.015 642, 565.322 645.133, 553.352 652.733 C 551.323 654.021, 550.998 653.758, 547.494 647.990 C 545.453 644.631, 544.087 641.572, 544.457 641.191 C 544.826 640.811, 551.288 636.630, 558.815 631.901 C 568.657 625.717, 572.590 622.694, 572.822 621.135 C 573.326 617.738, 567.405 609, 564.600 609 C 563.908 609, 553.478 615.116, 541.421 622.591 M 257.273 622.810 C 256.599 623.239, 250.763 634.594, 244.305 648.045 C 232.572 672.483, 232.564 672.505, 232.532 680 C 232.505 686.413, 232.913 688.246, 235.353 692.648 C 245.210 710.431, 273.484 721.344, 289.500 713.546 C 295.188 710.777, 297.645 708.783, 300.646 704.500 C 304.590 698.870, 324.120 656.855, 323.809 654.668 C 323.586 653.102, 321.450 651.459, 316.113 648.750 C 308.383 644.825, 304.932 644.156, 303.227 646.250 C 302.667 646.938, 297.763 656.725, 292.328 668 C 286.894 679.275, 281.579 689.955, 280.518 691.734 C 278.466 695.173, 273.681 698, 269.915 698 C 266.109 698, 258.922 693.919, 256.906 690.613 C 253.467 684.974, 254.275 682.049, 266.110 657.270 C 274.167 640.402, 277.058 633.368, 276.633 631.674 C 276.201 629.951, 273.992 628.373, 268.229 625.669 C 259.933 621.775, 259.202 621.585, 257.273 622.810 M 473.500 652.652 C 442.305 661.480, 439.664 662.655, 440.688 667.246 C 443.167 678.364, 443.966 678.754, 456.877 675.129 C 465.787 672.628, 467.015 672.485, 467.430 673.899 C 467.688 674.780, 471.318 687.629, 475.497 702.454 C 479.675 717.278, 483.616 730.038, 484.255 730.808 C 485.607 732.437, 489.638 732.069, 498.312 729.526 C 507.392 726.864, 507.389 727.586, 498.455 695.903 C 494.205 680.831, 490.677 667.879, 490.614 667.120 C 490.538 666.201, 493.815 664.790, 500.425 662.897 C 505.883 661.333, 510.737 659.479, 511.211 658.777 C 512.301 657.161, 511.637 652.461, 509.645 647.694 C 508.477 644.898, 507.543 644.020, 505.801 644.081 C 504.535 644.126, 490 647.983, 473.500 652.652 M 329.704 655.250 C 328.410 656.213, 326.632 664.981, 321.950 693.490 C 314.874 736.573, 314.333 732.874, 328.030 735.005 C 335.013 736.091, 336.366 736.063, 337.625 734.803 C 338.431 733.997, 339.970 728.462, 341.045 722.503 C 342.120 716.544, 343.215 711.452, 343.479 711.188 C 343.743 710.923, 345.865 711.111, 348.194 711.604 L 352.428 712.500 355.464 725.682 C 357.134 732.932, 358.828 739.186, 359.229 739.578 C 360.140 740.470, 373.372 742.877, 377.750 742.947 C 381.985 743.016, 381.969 742.016, 377.470 725.603 C 375.529 718.521, 374.067 712.643, 374.220 712.541 C 374.374 712.439, 376.598 711.155, 379.163 709.687 C 384.466 706.651, 387.112 702.875, 389.405 695.068 C 394.169 678.848, 387.867 666.475, 372.349 661.584 C 368.714 660.438, 334.527 654.102, 331.441 654.002 C 331.409 654.001, 330.627 654.563, 329.704 655.250 M 348.588 676.823 C 346.666 686.372, 345.881 693.281, 346.633 694.031 C 347.110 694.506, 350.513 695.204, 354.195 695.580 C 360.721 696.248, 360.966 696.188, 363.945 693.209 C 366.368 690.785, 367 689.298, 367 686.011 C 367 683.733, 366.555 681.037, 366.011 680.021 C 364.930 678.001, 358.615 675.429, 352.813 674.644 C 349.451 674.190, 349.079 674.381, 348.588 676.823 M 418.286 690.701 C 417.069 690.937, 414.732 692.382, 413.094 693.912 C 404.868 701.596, 410.230 713.986, 421.785 713.996 C 435.837 714.009, 438.684 694.784, 425.186 691.035 C 423.159 690.472, 421.275 690.070, 421 690.142 C 420.725 690.214, 419.504 690.465, 418.286 690.701" stroke="none" fill="#aa0000" fill-rule="evenodd"/></g></svg>