<svg xmlns="http://www.w3.org/2000/svg" width="768" height="768.2411664958711" viewBox="0 0 796.907958984375 797.158203125" version="1.1">
<g transform="translate(-1.545999526977539,-1.2957496643066406)"><path d="M 375 21.623 C 318.911 26.663, 275.696 38.517, 229.949 61.414 C 125.381 113.750, 50.574 212.273, 28.086 327.276 C 22.837 354.119, 21.546 368.481, 21.546 400 C 21.546 431.519, 22.837 445.881, 28.086 472.724 C 42.544 546.662, 78.714 614.551, 132.082 667.918 C 185.449 721.286, 253.338 757.456, 327.276 771.914 C 354.119 777.163, 368.481 778.454, 400 778.454 C 431.519 778.454, 445.881 777.163, 472.724 771.914 C 546.662 757.456, 614.551 721.286, 667.918 667.918 C 721.286 614.551, 757.456 546.662, 771.914 472.724 C 777.163 445.881, 778.454 431.519, 778.454 400 C 778.454 368.481, 777.163 354.119, 771.914 327.276 C 757.456 253.338, 721.286 185.449, 667.918 132.082 C 607.646 71.809, 529.427 33.870, 444 23.473 C 431.155 21.910, 385.449 20.684, 375 21.623 M 373.500 34.586 C 371.850 34.807, 365.550 35.480, 359.500 36.080 C 289.871 42.989, 218.913 73.654, 162.500 121.214 C 151.734 130.291, 128.561 153.548, 119.869 164 C 73.062 220.287, 44.806 286.029, 35.842 359.500 C 34.042 374.257, 34.042 425.743, 35.842 440.500 C 44.905 514.778, 73.626 581.054, 121.214 637.500 C 130.291 648.266, 153.548 671.439, 164 680.131 C 220.287 726.938, 286.029 755.194, 359.500 764.158 C 374.257 765.958, 425.743 765.958, 440.500 764.158 C 513.971 755.194, 579.713 726.938, 636 680.131 C 646.452 671.439, 669.709 648.266, 678.786 637.500 C 721.127 587.278, 748.728 528.910, 760.359 465 C 764.708 441.105, 765.500 431.086, 765.500 400 C 765.500 368.914, 764.708 358.895, 760.359 335 C 748.874 271.892, 721.718 214.010, 680.131 164 C 671.439 153.548, 648.266 130.291, 637.500 121.214 C 582.061 74.475, 517.450 46.040, 444.795 36.407 C 433.219 34.872, 381.246 33.544, 373.500 34.586 M 372.500 60.718 C 354.511 62.003, 337.677 64.023, 336.445 65.045 C 335.568 65.774, 334.998 68.062, 334.995 70.872 C 334.984 80.073, 341.244 144.561, 342.385 147 C 343.515 149.416, 343.871 149.498, 353.027 149.432 C 358.736 149.392, 363.448 148.852, 364.885 148.075 C 367.261 146.790, 367.268 146.737, 366.562 134.673 C 366.173 128.012, 365.774 122.098, 365.677 121.531 C 365.575 120.939, 367.595 120.500, 370.423 120.500 L 375.345 120.500 381.939 133 L 388.533 145.500 398.182 145.380 C 410.295 145.228, 413 144.595, 413 141.907 C 413 140.777, 409.601 134.028, 405.447 126.909 L 397.894 113.966 401.308 110.733 C 406.881 105.455, 409.317 99.602, 409.314 91.500 C 409.309 78.379, 404.438 68.305, 396.024 64.012 C 392.627 62.279, 381.037 59.750, 378.500 60.188 C 377.950 60.283, 375.250 60.521, 372.500 60.718 M 440.609 61.534 C 438.750 63.393, 437.013 69.304, 437.006 73.801 C 436.999 77.782, 439.023 78.806, 452.267 81.522 C 459.357 82.976, 460.939 83.624, 460.542 84.910 C 460.272 85.784, 457.098 99.942, 453.490 116.372 C 445.775 151.505, 445.617 149.843, 456.913 152.412 C 460.753 153.285, 465.501 154, 467.464 154 C 470.527 154, 471.237 153.540, 472.477 150.750 C 473.271 148.963, 476.690 134.675, 480.074 119 C 483.459 103.325, 486.514 90.191, 486.864 89.813 C 487.214 89.435, 491.100 89.983, 495.500 91.029 C 504.925 93.271, 510.343 93.496, 511.826 91.709 C 513.382 89.835, 515.200 80.933, 514.554 78.358 C 514.212 76.998, 512.758 75.752, 510.750 75.100 C 507.915 74.180, 443.957 60, 442.641 60 C 442.367 60, 441.453 60.690, 440.609 61.534 M 295.500 74.634 C 292.200 75.988, 288.497 78.213, 287.271 79.579 L 285.041 82.064 287.392 88.282 C 288.685 91.702, 293.401 103.454, 297.872 114.397 C 302.873 126.639, 305.999 135.680, 305.996 137.897 C 305.986 148.240, 292.329 155.546, 283.299 150.040 C 279.301 147.603, 278.999 147.008, 267.991 119.869 C 263.016 107.602, 258.237 96.485, 257.372 95.164 C 256.044 93.138, 255.209 92.843, 252.019 93.271 C 249.940 93.550, 245.147 95.290, 241.369 97.139 C 235.886 99.822, 234.443 101.004, 234.215 103 C 233.919 105.603, 250.806 148.198, 255.698 157.186 C 264.263 172.923, 285.462 176.459, 307.746 165.870 C 316.052 161.923, 325.193 153.349, 328.668 146.247 C 330.814 141.860, 331.411 139.207, 331.408 134.069 C 331.405 128.063, 330.525 125.315, 321.137 102 C 315.489 87.975, 310.212 75.487, 309.411 74.250 C 307.501 71.301, 303.349 71.416, 295.500 74.634 M 363.202 80.854 C 362.208 81.485, 362.064 83.804, 362.589 90.751 C 362.966 95.742, 363.582 100.324, 363.959 100.934 C 364.449 101.726, 366.620 101.764, 371.572 101.067 C 377.088 100.291, 378.958 99.562, 380.750 97.490 C 384.736 92.881, 383.341 83.387, 378.343 81.110 C 375.515 79.822, 365.107 79.646, 363.202 80.854 M 542.319 92.250 C 539.136 95.778, 504 159.589, 504 161.842 C 504 162.951, 504.660 164.517, 505.467 165.324 C 507.884 167.741, 555.722 194, 557.708 194 C 558.718 194, 563.349 197.825, 568 202.500 C 577.778 212.329, 576.390 211.997, 595.750 209.142 L 608 207.335 607.987 209.418 C 607.980 210.563, 607.086 217.125, 606 224 C 604.914 230.875, 604.020 237.073, 604.013 237.773 C 604.006 238.474, 607.662 242.861, 612.138 247.523 C 619.538 255.232, 623.012 257.408, 624.379 255.195 C 624.653 254.753, 626.558 243.165, 628.613 229.445 C 630.668 215.725, 632.419 204.389, 632.504 204.254 C 632.589 204.119, 643.376 202.464, 656.476 200.576 C 671.324 198.437, 680.588 196.667, 681.077 195.876 C 682.212 194.038, 681.009 192.358, 672.641 184.096 C 664.092 175.654, 665.369 175.944, 647.969 178.505 C 641.833 179.408, 636.669 180.001, 636.493 179.823 C 636.317 179.645, 637.024 174.325, 638.064 168 C 639.104 161.675, 639.965 155.366, 639.978 153.979 C 639.994 152.123, 637.666 149.135, 631.151 142.650 C 622.926 134.463, 622.185 133.958, 620.651 135.492 C 619.743 136.400, 618.994 137.673, 618.987 138.321 C 618.964 140.396, 612.188 183.148, 611.837 183.431 C 611.490 183.712, 565.108 190.068, 563.730 190.024 C 563.306 190.011, 563.911 188.135, 565.074 185.855 C 566.657 182.753, 566.947 181.180, 566.227 179.605 C 565.662 178.368, 559.334 174.239, 550.883 169.592 C 542.972 165.243, 535.929 161.244, 535.232 160.705 C 534.243 159.941, 534.653 158.490, 537.092 154.113 C 538.813 151.026, 540.558 148.135, 540.970 147.690 C 541.383 147.244, 546.621 149.604, 552.610 152.933 C 558.600 156.262, 563.984 158.989, 564.576 158.993 C 567.761 159.014, 574.647 147.078, 573.109 144.203 C 572.588 143.230, 567.401 139.774, 561.581 136.522 C 555.761 133.270, 551 130.240, 551 129.789 C 551 129.172, 556.234 119.124, 557.555 117.204 C 557.667 117.041, 564.676 120.751, 573.130 125.449 C 581.874 130.308, 589.677 133.992, 591.230 133.995 C 593.476 133.999, 594.493 133.070, 596.970 128.750 C 601.012 121.702, 600.885 119.576, 596.250 116.691 C 585.464 109.978, 548.140 90, 546.384 90 C 545.265 90, 543.435 91.013, 542.319 92.250 M 193 132.370 C 189.975 133.032, 184.575 135.125, 181 137.022 C 172.247 141.667, 159.345 154.528, 155.439 162.500 C 152.814 167.859, 152.500 169.516, 152.500 178 C 152.500 186.899, 152.731 187.974, 156.155 195 C 162.822 208.680, 174.096 219.808, 185.960 224.418 C 200.928 230.236, 216.942 225.500, 231.890 210.834 C 249.519 193.540, 251.683 175.830, 238.577 156.116 C 230.067 143.315, 218.536 134.774, 206.201 132.134 C 200.015 130.810, 200.145 130.808, 193 132.370 M 186.243 156.164 C 177.801 160.258, 173.643 168.476, 175.845 176.712 C 178.240 185.664, 188.955 198.378, 197.537 202.451 C 202.041 204.588, 208.826 204.658, 212.788 202.610 C 214.444 201.753, 217.375 199.212, 219.300 196.962 C 226.991 187.978, 224.754 177.981, 212.070 164.643 C 205.848 158.100, 198.727 153.975, 193.783 154.050 C 191.977 154.077, 188.584 155.029, 186.243 156.164 M 369.500 167.563 C 263.633 181.923, 181.411 264.465, 167.546 370.301 C 164.566 393.047, 165.912 427.093, 170.637 448.500 C 190.852 540.088, 259.912 609.148, 351.500 629.363 C 379.561 635.556, 420.439 635.556, 448.500 629.363 C 546.926 607.639, 619.457 528.914, 632.454 429.699 C 635.434 406.953, 634.088 372.907, 629.363 351.500 C 607.639 253.074, 528.914 180.543, 429.699 167.546 C 415.174 165.643, 383.586 165.652, 369.500 167.563 M 382.500 178.999 C 294.500 186.403, 218.844 244.980, 190.704 327.500 C 181.845 353.478, 178.746 372.267, 178.746 400 C 178.746 427.733, 181.845 446.522, 190.704 472.500 C 212.369 536.033, 263.967 587.631, 327.500 609.296 C 353.478 618.155, 372.267 621.254, 400 621.254 C 427.733 621.254, 446.522 618.155, 472.500 609.296 C 536.033 587.631, 587.631 536.033, 609.296 472.500 C 618.155 446.522, 621.254 427.733, 621.254 400 C 621.254 372.267, 618.155 353.478, 609.296 327.500 C 582.721 249.571, 513.311 192.385, 431 180.605 C 417.451 178.666, 395.207 177.930, 382.500 178.999 M 115.214 204.250 C 110.573 211.988, 106 220.792, 106 221.988 C 106 222.701, 110.050 229.955, 115 238.108 C 119.950 246.261, 124 253.172, 124 253.466 C 124 253.760, 116.463 254.007, 107.250 254.015 C 95.948 254.025, 89.718 254.431, 88.094 255.265 C 84.833 256.939, 74.328 275.728, 75.819 277.219 C 76.555 277.955, 86.878 278.231, 108.265 278.087 L 139.630 277.875 150.309 283.938 C 156.182 287.272, 162.092 290, 163.443 290 C 166.068 290, 168.601 287.138, 173.336 278.822 C 176.429 273.391, 176.713 269.944, 174.250 267.755 C 173.287 266.900, 167.940 263.653, 162.368 260.539 L 152.235 254.878 136.538 227.939 C 125.004 208.145, 120.353 201, 119.002 201 C 117.991 201, 116.286 202.463, 115.214 204.250 M 688.585 220.773 C 680.810 225.086, 680.767 225.483, 686.821 237.127 C 689.728 242.718, 691.745 247.622, 691.303 248.024 C 690.862 248.425, 678.872 254.716, 664.659 262.003 C 650.446 269.290, 637.669 276.241, 636.264 277.449 C 634.097 279.313, 633.817 280.164, 634.410 283.073 C 634.794 284.958, 636.791 289.425, 638.847 293 C 641.806 298.145, 643.145 299.566, 645.273 299.815 C 647.169 300.036, 656.130 295.915, 675.714 285.815 C 690.979 277.942, 703.719 271.381, 704.027 271.236 C 704.334 271.090, 706.366 274.648, 708.543 279.142 C 715.367 293.231, 716.702 294.025, 725.500 289.227 C 729.262 287.175, 730.575 285.855, 730.802 283.895 C 731.011 282.097, 726.318 272.058, 715.670 251.523 C 707.181 235.151, 699.512 220.911, 698.628 219.878 C 696.468 217.356, 694.416 217.539, 688.585 220.773 M 695.623 426 C 695.308 427.375, 694.252 432.775, 693.275 438 L 691.500 447.500 680.250 448.908 C 674.063 449.682, 669 450.649, 669 451.057 C 669 451.464, 672.938 453.857, 677.750 456.373 C 682.563 458.890, 687.053 461.319, 687.729 461.770 C 688.687 462.411, 688.524 465.108, 686.985 474.046 C 685.901 480.346, 685.010 485.713, 685.007 485.973 C 685.003 486.233, 688.038 483.516, 691.750 479.934 C 703.659 468.444, 701.299 468.932, 713.446 475.448 C 719.251 478.561, 724 480.865, 724 480.566 C 724 480.268, 721.638 475.261, 718.750 469.441 L 713.500 458.857 722.207 450.429 C 726.996 445.793, 730.596 442.009, 730.207 442.019 C 729.818 442.030, 725 442.691, 719.500 443.488 C 714 444.285, 708.941 444.951, 708.259 444.968 C 707.576 444.986, 704.583 440.163, 701.606 434.250 C 697 425.100, 696.110 423.872, 695.623 426 M 105.569 435.639 C 102.856 441.337, 100.156 445.986, 99.569 445.968 C 98.981 445.951, 94 445.285, 88.500 444.488 C 83 443.691, 78.060 443.030, 77.522 443.019 C 76.984 443.009, 80.247 446.722, 84.772 451.271 C 89.297 455.820, 93 460.104, 93 460.791 C 93 461.478, 90.947 466.128, 88.438 471.124 C 85.928 476.121, 84.099 480.433, 84.373 480.706 C 84.647 480.980, 89.351 478.815, 94.826 475.895 L 104.781 470.586 113.140 478.451 C 118.226 483.236, 121.604 485.765, 121.766 484.908 C 121.913 484.134, 121.196 478.950, 120.174 473.388 L 118.316 463.276 128.138 458.075 C 133.540 455.214, 138.177 452.523, 138.442 452.094 C 138.707 451.665, 134.329 450.737, 128.712 450.033 C 123.095 449.328, 117.778 448.377, 116.895 447.918 C 115.782 447.340, 114.736 443.846, 113.476 436.497 C 112.478 430.673, 111.400 425.767, 111.081 425.593 C 110.761 425.419, 108.281 429.940, 105.569 435.639 M 652.145 484.772 C 649.050 487.416, 622.741 543.830, 623.392 546.426 C 624.002 548.854, 631.658 553, 635.533 553 C 637.668 553, 638.670 551.677, 642.732 543.500 C 645.328 538.275, 647.807 534, 648.242 534 C 648.676 534, 660.957 539.653, 675.533 546.562 C 693.911 555.274, 702.649 558.929, 704.042 558.487 C 705.216 558.114, 707.440 555.076, 709.394 551.175 C 714.075 541.831, 714.477 540.185, 712.590 538.099 C 711.715 537.132, 699.299 530.788, 684.999 524 C 670.700 517.212, 659 511.103, 659 510.425 C 659 509.747, 660.841 505.356, 663.090 500.668 C 667.568 491.336, 667.592 489.065, 663.231 487.027 C 654.658 483.021, 654.283 482.945, 652.145 484.772 M 150.256 489.840 C 148.740 491.953, 141.650 502.927, 134.500 514.228 L 121.500 534.775 110.859 540.404 C 99.009 546.672, 97.518 547.964, 98.357 551.237 C 99.557 555.921, 106.132 566.907, 108.111 567.535 C 109.511 567.980, 113.570 566.418, 121.107 562.534 L 132.067 556.887 160.689 558.502 C 195.589 560.472, 194.032 561.021, 187.969 548.885 C 185.665 544.273, 183.124 539.756, 182.322 538.846 C 181.127 537.490, 177.810 537.061, 163.932 536.468 C 154.619 536.070, 147 535.606, 147 535.437 C 147 535.268, 151.050 528.922, 156 521.335 C 160.950 513.747, 165 506.719, 165 505.716 C 165 503.054, 155.720 486.040, 154.256 486.018 C 153.572 486.008, 151.772 487.728, 150.256 489.840 M 615.653 554.798 C 612.664 557.934, 609.096 561.853, 607.725 563.506 L 605.233 566.512 607.606 578.933 C 608.912 585.764, 609.778 591.555, 609.532 591.801 C 609.286 592.047, 604.228 591.742, 598.292 591.122 C 592.356 590.502, 586.538 589.996, 585.363 589.997 C 583.942 589.999, 580.647 592.892, 575.528 598.629 C 569.086 605.850, 568.049 607.478, 569.172 608.601 C 570.051 609.479, 578.113 610.731, 592.491 612.222 L 614.466 614.500 618.983 637.714 C 621.467 650.482, 624.061 661.482, 624.746 662.160 C 625.736 663.139, 627.339 661.965, 632.553 656.446 C 643.123 645.256, 642.590 647.167, 639.539 631.422 C 638.085 623.914, 637.099 617.567, 637.350 617.317 C 637.600 617.066, 644.228 617.424, 652.078 618.112 L 666.350 619.363 673.646 611.431 C 680.672 603.794, 682.401 600.417, 679.750 599.509 C 679.063 599.274, 668.150 598.050, 655.500 596.791 L 632.500 594.500 628.143 572.316 C 625.316 557.921, 623.313 549.950, 622.437 549.614 C 621.664 549.317, 618.772 551.527, 615.653 554.798 M 185.575 575.651 C 178.418 577.848, 171.317 582.756, 164.443 590.258 C 146.598 609.733, 147.132 629.199, 166.029 648 C 181.588 663.480, 197.241 666.629, 213.481 657.548 C 221.668 652.969, 231.831 642.123, 236.138 633.365 C 239.158 627.225, 239.499 625.663, 239.494 618.015 C 239.489 610.342, 239.154 608.832, 236.104 602.743 C 232.409 595.369, 222.894 584.852, 215.951 580.469 C 206.210 574.320, 195.464 572.616, 185.575 575.651 M 195.885 596.380 C 191.027 598.116, 187.369 600.829, 181.662 606.930 C 175.829 613.166, 173.051 619.011, 173.022 625.109 C 173.003 629.075, 173.556 630.350, 176.984 634.244 C 186.256 644.779, 196.466 643.659, 208.654 630.773 C 217.293 621.638, 220.229 613.878, 217.509 607.367 C 215.389 602.293, 212.378 599.141, 207.500 596.890 C 202.802 594.722, 200.774 594.633, 195.885 596.380 M 541.207 622.352 C 516.190 637.966, 515.128 638.852, 516.639 642.855 C 518.003 646.470, 551.589 700.697, 554.402 703.827 C 555.828 705.413, 557.311 706.035, 559.059 705.778 C 560.470 705.571, 571.628 699.126, 583.855 691.455 C 599.783 681.463, 606.245 676.871, 606.650 675.259 C 607.462 672.025, 601.536 663, 598.600 663 C 597.395 663, 590.293 666.825, 582.818 671.500 C 575.342 676.175, 568.838 679.987, 568.363 679.972 C 567.179 679.933, 560.654 669.013, 561.380 668.286 C 561.701 667.965, 566.134 664.957, 571.232 661.601 C 582.101 654.446, 582.819 652.811, 578.006 646.167 C 576.308 643.823, 574.270 641.657, 573.477 641.353 C 572.683 641.048, 567.592 643.544, 562.163 646.899 C 556.734 650.255, 552.015 653, 551.677 653 C 551.338 653, 549.432 650.453, 547.441 647.340 C 544.621 642.932, 544.117 641.501, 545.160 640.868 C 558.562 632.746, 571.585 624.004, 572.632 622.427 C 573.784 620.692, 573.680 619.866, 571.876 616.457 C 568.969 610.964, 567.039 608.995, 564.595 609.031 C 563.443 609.048, 552.918 615.042, 541.207 622.352 M 255.182 625.250 C 254.093 627.038, 248.543 638.175, 242.851 650 L 232.500 671.500 232.500 679.500 C 232.500 685.743, 232.987 688.488, 234.718 692 C 242.351 707.484, 266.639 719.500, 283.309 716.040 C 290.941 714.455, 297.345 710.086, 301.290 703.774 C 306.482 695.463, 324 658.294, 324 655.588 C 324 652.499, 320.871 650.020, 312.464 646.447 L 305.892 643.654 303.552 646.077 C 302.266 647.410, 296.643 658.175, 291.057 670 C 279.533 694.395, 277.543 697, 270.435 697 C 265.278 697, 261.614 695.383, 258 691.513 C 253.286 686.465, 254.309 682.406, 266.790 656.650 C 275.161 639.376, 277.681 633.276, 277.118 631.650 C 276.273 629.206, 263.076 622, 259.445 622 C 257.944 622, 256.486 623.112, 255.182 625.250 M 472.500 652.649 C 456 657.354, 441.938 661.664, 441.250 662.225 C 439.621 663.554, 439.673 665.068, 441.571 671.595 C 443.586 678.528, 444.983 678.879, 457.049 675.486 C 464.497 673.392, 466.554 673.119, 466.958 674.172 C 467.239 674.902, 471.076 688.056, 475.485 703.403 C 482.044 726.235, 483.863 731.437, 485.500 732.028 C 488.009 732.934, 501.880 729.416, 504.250 727.272 C 505.212 726.402, 505.995 724.747, 505.989 723.595 C 505.983 722.443, 502.456 709.125, 498.150 694 C 493.845 678.875, 490.415 666.372, 490.528 666.217 C 490.641 666.061, 494.956 664.779, 500.117 663.369 C 505.278 661.960, 510.110 660.305, 510.856 659.692 C 512.485 658.355, 511.966 651.795, 509.887 647.436 C 508.846 645.255, 507.716 644.448, 505.493 644.297 C 503.847 644.185, 489 647.943, 472.500 652.649 M 328.602 656.250 C 326.796 659.062, 315.583 727.202, 316.394 730.433 C 317.138 733.397, 321.137 734.868, 330.636 735.671 C 339.365 736.409, 339.297 736.495, 341.683 721.660 L 343.368 711.185 346.934 711.718 C 348.895 712.011, 351.006 712.757, 351.626 713.375 C 352.245 713.994, 353.957 719.900, 355.431 726.500 C 356.904 733.100, 358.648 739.015, 359.305 739.644 C 359.962 740.273, 364.768 741.501, 369.984 742.374 C 383.184 744.582, 383.087 744.740, 378.521 728.401 C 376.538 721.305, 374.696 714.765, 374.427 713.866 C 374.090 712.737, 374.740 712.031, 376.530 711.582 C 380.834 710.502, 387.340 703.125, 389.271 697.135 C 391.570 690.001, 391.494 679.662, 389.104 674.500 C 384.658 664.896, 377.007 661.259, 352.449 657.075 C 330.877 653.400, 330.441 653.385, 328.602 656.250 M 347.761 684.250 C 346.918 689.337, 346.354 693.640, 346.508 693.811 C 346.662 693.982, 349.606 694.520, 353.049 695.007 C 360.629 696.078, 364.232 694.640, 365.892 689.881 C 368.502 682.393, 365.841 677.775, 357.942 676.081 C 349.126 674.190, 349.474 673.911, 347.761 684.250 M 415.367 691.918 C 410.846 694.675, 409 697.837, 409 702.823 C 409 706.447, 409.571 707.771, 412.321 710.521 C 416.666 714.866, 421.625 715.847, 426.642 713.353 C 436.613 708.398, 437.119 696.132, 427.540 691.586 C 423.107 689.482, 419.186 689.589, 415.367 691.918" stroke="none" fill="#000000" fill-rule="evenodd"/></g></svg>